<?xml version="1.0" encoding="UTF-8" standalone="no"?>
<!-- Created with Inkscape (http://www.inkscape.org/) -->

<svg
   width="67.497681mm"
   height="95.27301mm"
   viewBox="0 0 67.497681 95.27301"
   version="1.1"
   id="svg5"
   sodipodi:docname="The NEW Zetvue Logo.svg"
   inkscape:version="1.2 (dc2aedaf03, 2022-05-15)"
   inkscape:export-filename="The NEW Zetvue Logo.png"
   inkscape:export-xdpi="396.875"
   inkscape:export-ydpi="396.875"
   xml:space="preserve"
   xmlns:inkscape="http://www.inkscape.org/namespaces/inkscape"
   xmlns:sodipodi="http://sodipodi.sourceforge.net/DTD/sodipodi-0.dtd"
   xmlns="http://www.w3.org/2000/svg"
   xmlns:svg="http://www.w3.org/2000/svg"><sodipodi:namedview
     id="namedview7"
     pagecolor="#ffffff"
     bordercolor="#999999"
     borderopacity="1"
     inkscape:pageshadow="0"
     inkscape:pageopacity="0"
     inkscape:pagecheckerboard="0"
     inkscape:deskcolor="#d1d1d1"
     inkscape:document-units="mm"
     showgrid="true"
     inkscape:zoom="0.125"
     inkscape:cx="907.99999"
     inkscape:cy="1460"
     inkscape:window-width="1366"
     inkscape:window-height="715"
     inkscape:window-x="-8"
     inkscape:window-y="-8"
     inkscape:window-maximized="1"
     inkscape:current-layer="layer1"
     inkscape:showpageshadow="2"><inkscape:grid
       type="xygrid"
       id="grid132"
       spacingx="4.2333332"
       spacingy="4.2333332"
       originx="128"
       originy="128"
       enabled="false" /><inkscape:grid
       type="axonomgrid"
       id="grid3387"
       spacingy="16"
       originx="128"
       originy="128"
       empspacing="10"
       enabled="false" /></sodipodi:namedview><defs
     id="defs2" /><g
     inkscape:label="Layer 1"
     inkscape:groupmode="layer"
     id="layer1"
     transform="translate(-718.8807,31.392802)"><path
       id="path5651"
       style="fill:#e5383b;stroke-width:0.264583"
       d="m 759.32854,-31.392802 h 10.23443 v 3.721612 h -5.95458 v 0.744322 h 5.95458 v 8.559707 h -10.23443 v -3.907692 h 5.95458 v -0.744322 h -5.95458 z m -12.28132,0 h 10.23443 v 3.721612 h -5.95458 v 0.744322 h 5.95458 v 8.559707 h -10.23443 v -3.907692 h 5.95458 v -0.744322 h -5.95458 z m -12.28132,0 h 10.23443 v 4.279854 h -5.95458 v 4.279853 h 5.95458 v 4.279854 H 734.7659 Z m -15.88524,18.723676 6.14278,68.897603 27.56473,7.651729 27.6412,-7.662581 6.14898,-68.886751 z m 12.56048,14.0833775 h 21.18837 21.13824 l -1.52549,17.1028315 -0.20619,2.269113 -1.9854,22.246187 -0.12713,1.42782 -17.29403,4.792472 v 0.0015 l -0.0388,0.01085 -17.30902,-4.804874 -1.18391,-13.267924 h 8.48217 l 0.60203,6.739123 9.4108,2.541447 0.008,-0.0021 v -0.001 l 9.42423,-2.543514 0.98082,-10.959021 h -10.37611 -18.90944 l -0.75706,-8.450131 h 19.6665 11.10888 l 0.76894,-8.652701 h -11.87782 -20.42046 z" /></g></svg>
