<?xml version="1.0" encoding="UTF-8" standalone="no"?>
<!-- Created with Inkscape (http://www.inkscape.org/) -->

<svg
   width="56.22821mm"
   height="79.399178mm"
   viewBox="0 0 56.22821 79.399178"
   version="1.1"
   id="svg5"
   sodipodi:docname="The NEW Zetvue Logo.svg"
   inkscape:version="1.2 (dc2aedaf03, 2022-05-15)"
   inkscape:export-filename="The NEW Zetvue Logo.png"
   inkscape:export-xdpi="396.875"
   inkscape:export-ydpi="396.875"
   xml:space="preserve"
   xmlns:inkscape="http://www.inkscape.org/namespaces/inkscape"
   xmlns:sodipodi="http://sodipodi.sourceforge.net/DTD/sodipodi-0.dtd"
   xmlns="http://www.w3.org/2000/svg"
   xmlns:svg="http://www.w3.org/2000/svg"><sodipodi:namedview
     id="namedview7"
     pagecolor="#ffffff"
     bordercolor="#999999"
     borderopacity="1"
     inkscape:pageshadow="0"
     inkscape:pageopacity="0"
     inkscape:pagecheckerboard="0"
     inkscape:deskcolor="#d1d1d1"
     inkscape:document-units="mm"
     showgrid="true"
     inkscape:zoom="0.125"
     inkscape:cx="907.99999"
     inkscape:cy="1460"
     inkscape:window-width="1366"
     inkscape:window-height="715"
     inkscape:window-x="-8"
     inkscape:window-y="-8"
     inkscape:window-maximized="1"
     inkscape:current-layer="layer1"
     inkscape:showpageshadow="2"><inkscape:grid
       type="xygrid"
       id="grid132"
       spacingx="4.2333332"
       spacingy="4.2333332"
       originx="128"
       originy="128"
       enabled="false" /><inkscape:grid
       type="axonomgrid"
       id="grid3387"
       spacingy="16"
       originx="128"
       originy="128"
       empspacing="10"
       enabled="false" /></sodipodi:namedview><defs
     id="defs2" /><g
     inkscape:label="Layer 1"
     inkscape:groupmode="layer"
     id="layer1"
     transform="translate(-566.52095,15.51897)"><path
       style="fill:#ff5555;stroke-width:0.264583"
       d="m 583.40393,60.740775 -10.9802,-3.08516 -0.46303,-0.18669 -0.46302,-0.1867 3.5e-4,-0.8682 3.4e-4,-0.8682 -2.37368,-26.722906 -2.37366,-26.7229205 -0.11504,-0.992188 -0.11504,-0.992187 h 28.11411 28.11411 l -0.11611,1.25677 -0.11612,1.256771 -2.43391,27.3053645 -2.43391,27.305356 -0.14632,0.14631 -0.14631,0.14631 -11.46713,3.17385 -11.46714,3.173851 -0.019,-0.0271 -0.019,-0.0271 z m 18.35427,-11.028616 7.15961,-1.99722 0.0769,-0.0769 0.0769,-0.0769 0.92451,-10.26974 0.92451,-10.26973 V 26.53321 26.04475 H 598.1225 585.32438 l -0.17312,-2.18281 -0.17311,-2.18281 -0.15612,-1.389071 -0.15612,-1.38906 h 13.48774 13.48774 l 0.1745,-2.050521 0.1745,-2.05052 0.16075,-1.521355 0.16076,-1.521354 h -17.629 -17.62897 v 0.337323 0.33732 l 0.92605,10.286717 0.92604,10.28672 v 0.0916 0.0916 h 12.17083 12.17083 l -7.9e-4,0.19844 -7.9e-4,0.19844 -0.40563,4.223691 -0.40563,4.22369 -0.2945,0.18201 -0.2945,0.18201 -3.73073,0.9585 -3.73073,0.95851 -3.699,-1.01509 -3.699,-1.0151 -0.19362,-0.77724 -0.19386,-0.77723 -0.16485,-2.05053 -0.16485,-2.05052 h -3.53683 -3.53684 l 0.129,1.25677 0.12899,1.25678 0.38334,4.20691 0.38334,4.20692 0.0837,0.0837 0.0837,0.0837 6.99824,1.96573 6.99824,1.96573 0.10723,0.0275 0.10723,0.0275 z m -29.99593,-59.782995 v -5.423958 h 1.85208 1.85208 v 1.719792 1.719791 h 1.5875 1.5875 v -1.731879 -1.731881 l 1.78594,0.07823 1.78594,0.07824 v 5.291666 5.2916675 l -1.78594,0.07823 -1.78594,0.07823 v -1.864172 -1.864172 h -1.5875 -1.5875 v 1.852083 1.852084 h -1.85208 -1.85208 z m 15.08125,1.8520845 v -3.5718755 h -1.5875 -1.5875 v -1.852084 -1.852083 h 5.02708 5.02708 v 1.852083 1.852084 h -1.5875 -1.5875 v 3.5718755 3.571875 h -1.85208 -1.85208 z m 8.32002,3.232998 -0.13004,-0.338877 0.0722,-5.0189345 0.0722,-5.018936 1.88132,-0.07699 1.88132,-0.07699 1.12887,1.868347 1.12888,1.868348 1.11339,-1.791355 1.11339,-1.791356 1.89569,-0.07774 1.89568,-0.07774 v 5.447639 5.4476385 l -1.78593,-0.07823 -1.78594,-0.07823 -0.13229,-2.375398 -0.13229,-2.375398 -1.05834,1.64548 -1.05833,1.645479 -0.13229,-0.0093 -0.13229,-0.0093 -1.11769,-1.774355 -1.1177,-1.774355 -0.007,2.579687 -0.007,2.579688 h -1.7281 -1.72809 z m 13.90498,-5.0850825 v -5.423958 h 1.71979 1.71979 v 3.571875 3.5718755 h 2.51354 2.51354 v 1.852083 1.852084 h -4.23333 -4.23333 z"
       id="path5720" /></g></svg>
