<?xml version="1.0" encoding="UTF-8" standalone="no"?>
<!-- Created with Inkscape (http://www.inkscape.org/) -->

<svg
   width="270.66873mm"
   height="166.46199mm"
   viewBox="0 0 270.66873 166.46199"
   version="1.1"
   id="svg5"
   xml:space="preserve"
   xmlns:inkscape="http://www.inkscape.org/namespaces/inkscape"
   xmlns:sodipodi="http://sodipodi.sourceforge.net/DTD/sodipodi-0.dtd"
   xmlns="http://www.w3.org/2000/svg"
   xmlns:svg="http://www.w3.org/2000/svg"><sodipodi:namedview
     id="namedview7"
     pagecolor="#ffffff"
     bordercolor="#000000"
     borderopacity="0.25"
     inkscape:showpageshadow="2"
     inkscape:pageopacity="0.0"
     inkscape:pagecheckerboard="0"
     inkscape:deskcolor="#d1d1d1"
     inkscape:document-units="mm"
     showgrid="false" /><defs
     id="defs2" /><g
     inkscape:label="Layer 1"
     inkscape:groupmode="layer"
     id="layer1"
     transform="translate(60.668733,6.4445155)"><path
       style="fill:#e5383b;stroke-width:0.264583"
       d="m -44.565422,159.82267 c -0.747552,-0.12551 -2.123453,-0.50561 -3.057556,-0.84467 -6.115581,-2.21984 -10.439879,-6.79783 -12.42583,-13.15481 l -0.619927,-1.98438 V 76.766944 9.6950645 l 0.619927,-1.98437 c 1.106957,-3.54334 2.559263,-5.97674 5.058904,-8.47638 2.499641,-2.49964 4.933033,-3.95194 8.476376,-5.0589 l 1.984375,-0.61993 H 74.66563 193.86042 l 1.98437,0.61993 c 3.54335,1.10696 5.97674,2.55926 8.47638,5.0589 2.49965,2.49964 3.95195,4.93304 5.05891,8.47638 L 210,9.6950645 V 76.766944 143.83881 l -0.61992,1.98438 c -1.10696,3.54334 -2.55926,5.97674 -5.05891,8.47638 -2.43881,2.43881 -4.79089,3.86433 -8.34408,5.05711 l -1.85209,0.62172 -118.66562,0.0362 c -65.466046,0.02 -119.27496,-0.066 -120.024802,-0.19193 z M 193.30569,146.50139 c 1.31689,-0.6534 2.56391,-1.90042 3.2173,-3.2173 0.50269,-1.01314 0.51243,-2.2777 0.51243,-66.517146 0,-64.23946 -0.01,-65.50401 -0.51243,-66.51715 -0.65339,-1.3168795 -1.90041,-2.5638995 -3.2173,-3.2172995 -1.01621,-0.50421 -2.90999,-0.5135 -118.10526,-0.57975 -130.07981,-0.0748 -118.803692,-0.23622 -120.829393,1.72965 -0.570278,0.55344 -1.270491,1.47738 -1.556029,2.0532095 -0.510942,1.03039 -0.520338,2.07317 -0.593546,65.86988 -0.05178,45.126276 0.01108,65.170196 0.206893,65.965846 0.551806,2.24218 2.35977,4.14435 4.535735,4.77209 0.567615,0.16375 43.177436,0.2407 118.09842,0.21328 115.35733,-0.0422 117.22674,-0.051 118.24318,-0.55531 z M -21.642696,76.766944 v -44.18542 l 13.030729,0.004 13.030728,0.004 12.899271,16.13516 c 7.094598,8.87433 12.988191,16.12898 13.096874,16.12144 0.108683,-0.008 5.972135,-7.26416 13.029895,-16.12585 l 12.832289,-16.11217 13.03073,-0.0137 13.03073,-0.0137 v 44.18542 44.185416 H 69.37529 56.41204 l -0.0675,-25.253796 -0.0675,-25.25379 -12.699997,15.88225 c -6.985,8.73524 -12.826015,15.987436 -12.980037,16.115986 -0.182679,0.15249 -4.781862,-5.378166 -13.229166,-15.908476 L 4.418711,70.391484 4.351241,95.671514 4.283761,120.95154 H -8.679441 -21.642696 Z m 143.206736,22.80502 -19.37971,-21.34981 12.96357,-0.0686 12.96356,-0.0686 v -22.75167 -22.75168 h 12.96459 12.96458 v 22.75168 22.75167 l 12.98798,0.0686 12.98799,0.0686 -19.35772,21.29896 c -10.64674,11.714416 -19.43814,21.321836 -19.53642,21.349806 -0.0983,0.028 -8.89958,-9.55656 -19.55842,-21.298956 z"
       id="path248" /></g></svg>
