<?xml version="1.0" encoding="UTF-8" standalone="no"?>
<!-- Created with Inkscape (http://www.inkscape.org/) -->

<svg
   width="203.06573mm"
   height="196.68343mm"
   viewBox="0 0 203.06573 196.68343"
   version="1.1"
   id="svg5"
   sodipodi:docname="The NEW Zetvue Logo.svg"
   inkscape:version="1.2 (dc2aedaf03, 2022-05-15)"
   inkscape:export-filename="The NEW Zetvue Logo.png"
   inkscape:export-xdpi="396.875"
   inkscape:export-ydpi="396.875"
   xml:space="preserve"
   xmlns:inkscape="http://www.inkscape.org/namespaces/inkscape"
   xmlns:sodipodi="http://sodipodi.sourceforge.net/DTD/sodipodi-0.dtd"
   xmlns="http://www.w3.org/2000/svg"
   xmlns:svg="http://www.w3.org/2000/svg"><sodipodi:namedview
     id="namedview7"
     pagecolor="#ffffff"
     bordercolor="#999999"
     borderopacity="1"
     inkscape:pageshadow="0"
     inkscape:pageopacity="0"
     inkscape:pagecheckerboard="0"
     inkscape:deskcolor="#d1d1d1"
     inkscape:document-units="mm"
     showgrid="true"
     inkscape:zoom="0.125"
     inkscape:cx="907.99999"
     inkscape:cy="1460"
     inkscape:window-width="1366"
     inkscape:window-height="715"
     inkscape:window-x="-8"
     inkscape:window-y="-8"
     inkscape:window-maximized="1"
     inkscape:current-layer="layer1"
     inkscape:showpageshadow="2"><inkscape:grid
       type="xygrid"
       id="grid132"
       spacingx="4.2333332"
       spacingy="4.2333332"
       originx="128"
       originy="128"
       enabled="false" /><inkscape:grid
       type="axonomgrid"
       id="grid3387"
       spacingy="16"
       originx="128"
       originy="128"
       empspacing="10"
       enabled="false" /></sodipodi:namedview><defs
     id="defs2" /><g
     inkscape:label="Layer 1"
     inkscape:groupmode="layer"
     id="layer1"
     transform="translate(-723.22384,-79.447779)"><path
       id="path5728"
       style="fill:#ff5555;stroke-width:0.20608"
       d="m 878.57536,79.555603 c 1.12839,1.64608 1.94783,3.52156 2.43499,5.42809 0.70575,59.621097 0,120.158197 0,181.890707 0.29095,3.18595 -0.37946,6.60911 -2.20607,9.2568 l 42.27184,-20.83026 c 6.01754,-4.10097 5.17281,-9.19117 5.17281,-9.19117 V 107.78902 c 0,-6.07936 -6.22391,-8.181417 -6.22391,-8.181417 l -40.74169,-19.63911 c -0.23852,-0.14741 -0.47392,-0.28234 -0.70797,-0.41289 z m -9.21546,-0.10336 c -1.33996,-0.053 -2.93176,0.36031 -4.81159,1.50534 l -76.27803,69.424187 c 10.64535,8.05441 21.2904,16.10951 31.935,24.16493 l 55.90408,-42.68732 -0.39119,-46.079867 c 0,0 -1.57269,-6.1378 -6.35827,-6.32727 z M 754.10854,181.2512 725.15578,207.57311 c 0,0 -3.3797,2.51426 0,7.0068 l 15.27039,13.8896 c 0,0 3.62742,3.89483 8.9855,-0.53589 l 30.57591,-23.18463 c -8.62627,-7.8327 -17.25276,-15.6651 -25.87904,-23.49779 z M 725.1558,147.80983 c 0,0 -4.94592,-3.56519 0.98918,-8.32563 l 13.82798,-12.36481 c 0,0 3.95673,-4.16282 8.14016,-0.53581 l 127.60479,96.61034 v 46.32681 c 0,0 -0.0618,7.27462 -9.39726,6.47091 z" /></g></svg>
